<?xml version="1.0" standalone="no"?>
<!DOCTYPE svg PUBLIC "-//W3C//DTD SVG 20010904//EN"
 "http://www.w3.org/TR/2001/REC-SVG-20010904/DTD/svg10.dtd">
<svg version="1.0" xmlns="http://www.w3.org/2000/svg"
 width="99.000000pt" height="99.000000pt" viewBox="0 0 99.000000 99.000000"
 preserveAspectRatio="xMidYMid meet">
<metadata>
Created by potrace 1.11, written by Peter Selinger 2001-2013
</metadata>
<g transform="translate(0.000000,99.000000) scale(0.100000,-0.100000)"
fill="#000000" stroke="none">
<path d="M346 935 c-179 -63 -293 -214 -302 -401 -6 -134 38 -247 130 -339
l52 -52 -27 -60 c-23 -51 -24 -60 -11 -57 10 2 53 13 97 24 60 14 103 18 166
15 101 -5 153 5 237 46 115 56 204 166 238 293 19 71 11 198 -15 265 -91 228
-339 345 -565 266z"/>
</g>
</svg>
